<svg xmlns="http://www.w3.org/2000/svg" viewBox="0 0 600 700" role="img" aria-labelledby="title desc">
  <title id="title">shinyblocks hex sticker</title>
  <desc id="desc">A black and white hexagonal sticker with the shinyblocks browser icon and package name.</desc>
  <path
    d="M300 16 582 176v348L300 684 18 524V176Z"
    fill="#171717"
  />
  <path
    d="M300 31 568 183v334L300 669 32 517V183Z"
    fill="#fff"
  />
  <path
    d="M300 48 551 191v318L300 652 49 509V191Z"
    fill="none"
    stroke="#171717"
    stroke-width="4"
  />

  <!-- Preserve the browser-tab icon as the package mark. -->
  <g transform="translate(150 126) scale(12.5)">
    <g transform="translate(2 0)">
      <path
        d="M10 22V7a1 1 0 0 0-1-1H4a2 2 0 0 0-2 2v12a2 2 0 0 0 2 2h12a2 2 0 0 0 2-2v-5a1 1 0 0 0-1-1H2"
        fill="none"
        stroke="#171717"
        stroke-width="2"
        stroke-linecap="round"
        stroke-linejoin="round"
      />
    </g>
    <rect x="16" y="2" width="8" height="8" rx="1.5" fill="#171717"/>
  </g>

  <text
    x="300"
    y="480"
    fill="#171717"
    font-family="ui-sans-serif, system-ui, sans-serif"
    font-size="68"
    font-weight="700"
    letter-spacing="-2"
    text-anchor="middle"
  >shinyblocks</text>
  <text
    x="300"
    y="527"
    fill="#737373"
    font-family="ui-sans-serif, system-ui, sans-serif"
    font-size="23"
    font-weight="700"
    letter-spacing="5"
    text-anchor="middle"
  >UI FOR SHINY</text>
</svg>
